<svg width="225" height="187" viewBox="0 0 225 187" fill="none" xmlns="http://www.w3.org/2000/svg">
<path d="M168.974 129.543H34.2973C32.5512 129.543 31.1357 130.957 31.1357 132.702V141.524C31.1357 143.269 32.5512 144.683 34.2973 144.683H168.974C170.72 144.683 172.136 143.269 172.136 141.524V132.702C172.136 130.957 170.72 129.543 168.974 129.543Z" fill="#231F20"/>
<path d="M164.874 122.627H38.3975V142H164.874V122.627Z" fill="#231F20"/>
<path d="M34.1553 137.342H52.8223V160.632C52.819 162.777 51.964 164.832 50.445 166.348C48.926 167.863 46.8672 168.714 44.7207 168.714H42.2507C40.1052 168.713 38.048 167.861 36.5304 166.346C35.0127 164.83 34.1585 162.776 34.1553 160.632V137.342Z" fill="#231F20"/>
<path d="M150.449 137.342H169.116V160.632C169.113 162.776 168.259 164.83 166.741 166.346C165.224 167.861 163.166 168.713 161.021 168.714H158.551C156.402 168.714 154.341 167.861 152.822 166.343C151.303 164.825 150.449 162.767 150.449 160.62V137.342Z" fill="#231F20"/>
<path d="M57.5521 140.551H145.725V147.596C145.725 148.889 145.211 150.129 144.296 151.043C143.381 151.957 142.14 152.47 140.847 152.47H62.4241C61.1304 152.47 59.8895 151.957 58.9747 151.043C58.0598 150.129 57.5459 148.889 57.5459 147.596V140.551H57.5521Z" fill="#231F20"/>
<path d="M161.429 137.113H41.8438V149.786H161.429V137.113Z" fill="#231F20"/>
<path d="M171.006 103.316C170.179 99.6146 165.449 96.8444 165.449 96.8444H165.412V32.5571C165.387 18.7927 146.788 18.1758 101.599 18.1758C56.4106 18.1758 37.8115 18.7927 37.8115 32.5571V96.8506H37.7744C37.7744 96.8506 33.0259 99.6084 32.2169 103.323C31.408 107.037 32.2169 127.483 32.2169 127.483L60.943 129.543H142.255L170.982 127.483C170.982 127.483 171.834 107.018 171.006 103.316Z" fill="#68E1FD"/>
<path d="M60.9239 129.846L32.1731 127.786C32.0981 127.778 32.0282 127.744 31.9761 127.69C31.924 127.636 31.8931 127.565 31.889 127.489C31.852 126.65 31.0677 106.963 31.889 103.249C32.6732 99.7323 36.7302 97.1164 37.4959 96.6537V32.5576C37.4959 18.4169 56.0209 17.8555 101.592 17.8555C147.164 17.8555 165.72 18.4169 165.72 32.5576V96.6599C166.485 97.1226 170.549 99.7447 171.333 103.255C172.154 106.957 171.37 126.657 171.333 127.496C171.329 127.572 171.297 127.644 171.243 127.698C171.19 127.753 171.119 127.786 171.043 127.792L142.304 129.846H60.9239ZM32.5189 127.187L60.9424 129.229H142.255L170.66 127.187C170.752 124.719 171.413 106.784 170.66 103.385C169.906 99.9915 165.658 97.3694 165.257 97.1288C165.195 97.1099 165.141 97.0726 165.101 97.0218C165.061 96.971 165.038 96.9093 165.034 96.845V32.5576C165.034 25.987 160.644 22.384 150.344 20.5022C140.044 18.6205 123.6 18.4724 101.562 18.4724C79.523 18.4724 63.1222 18.6205 52.779 20.5022C42.4359 22.384 38.0825 25.987 38.0825 32.5576V96.8511C38.0838 96.9226 38.0596 96.9921 38.0144 97.0474C37.9692 97.1028 37.9058 97.1403 37.8355 97.1534C37.286 97.4866 33.1981 100.072 32.4633 103.391C31.7285 106.71 32.4015 124.744 32.4942 127.193L32.5189 127.187Z" fill="#231F20"/>
<path d="M66.8395 88.8672H136.432C137.993 88.8672 139.489 89.4866 140.593 90.5893C141.697 91.6919 142.317 93.1874 142.317 94.7468V129.543H60.9609V94.7468C60.9609 93.1885 61.5801 91.6939 62.6824 90.5915C63.7846 89.489 65.2799 88.8688 66.8395 88.8672Z" fill="#68E1FD"/>
<path d="M142.317 129.847H60.9611C60.8792 129.847 60.8007 129.814 60.7428 129.757C60.6849 129.699 60.6523 129.62 60.6523 129.538V94.7419C60.6523 93.1056 61.3029 91.5363 62.461 90.3793C63.619 89.2223 65.1896 88.5723 66.8273 88.5723H136.42C138.057 88.5723 139.628 89.2223 140.786 90.3793C141.944 91.5363 142.595 93.1056 142.595 94.7419V129.538C142.595 129.615 142.567 129.689 142.515 129.746C142.464 129.803 142.393 129.839 142.317 129.847ZM61.2698 129.23H142.008V94.7419C142.008 93.2692 141.422 91.8569 140.38 90.8156C139.338 89.7742 137.924 89.1892 136.45 89.1892H66.8397C65.3657 89.1892 63.9522 89.7742 62.9099 90.8156C61.8677 91.8569 61.2822 93.2692 61.2822 94.7419L61.2698 129.23Z" fill="#231F20"/>
<path d="M51.8839 120.875H36.3538C35.6987 120.875 35.0704 120.615 34.6072 120.152C34.144 119.689 33.8838 119.061 33.8838 118.407V108.215C33.8838 107.866 34.0224 107.532 34.269 107.285C34.5157 107.039 34.8502 106.9 35.1991 106.9H50.6366C50.9328 106.9 51.2205 106.999 51.4526 107.183C51.6848 107.367 51.8477 107.624 51.9148 107.912L54.2736 117.876C54.3527 118.235 54.3506 118.607 54.2676 118.964C54.1845 119.322 54.0226 119.657 53.7937 119.944C53.5647 120.231 53.2744 120.464 52.944 120.625C52.6137 120.786 52.2515 120.871 51.8839 120.875Z" fill="#231F20"/>
<path d="M50.0002 108.555H36.0879V117.71H50.0002V108.555Z" fill="#D1D3D4"/>
<path d="M60.961 112.029C60.8958 112.03 60.832 112.01 60.7787 111.972C60.7254 111.935 60.6855 111.881 60.6646 111.819C60.6338 111.727 57.3363 102.256 52.1246 99.1839C46.9129 96.1115 37.9221 97.148 37.848 97.1603C37.8075 97.1652 37.7664 97.162 37.727 97.151C37.6877 97.14 37.651 97.1213 37.6188 97.0961C37.5867 97.0709 37.5599 97.0396 37.5399 97.0041C37.5199 96.9685 37.5071 96.9293 37.5022 96.8888C37.4973 96.8483 37.5005 96.8073 37.5115 96.768C37.5226 96.7287 37.5412 96.6919 37.5664 96.6599C37.5917 96.6278 37.623 96.601 37.6586 96.581C37.6942 96.561 37.7334 96.5482 37.7739 96.5433C38.1506 96.494 47.0364 95.4636 52.4334 98.6472C57.8303 101.831 61.1154 111.215 61.2513 111.603C61.2769 111.68 61.2711 111.764 61.2353 111.837C61.1995 111.91 61.1365 111.965 61.0598 111.992L60.961 112.029Z" fill="#231F20"/>
<path d="M151.388 120.875H166.955C167.61 120.875 168.238 120.615 168.701 120.152C169.165 119.689 169.425 119.061 169.425 118.407V108.215C169.425 107.866 169.286 107.532 169.04 107.285C168.793 107.039 168.458 106.9 168.109 106.9H152.672C152.376 106.902 152.09 107.002 151.858 107.186C151.626 107.369 151.463 107.625 151.394 107.912L149.047 117.876C148.969 118.231 148.97 118.598 149.05 118.953C149.13 119.307 149.288 119.639 149.512 119.925C149.735 120.212 150.019 120.445 150.343 120.609C150.668 120.773 151.024 120.864 151.388 120.875Z" fill="#231F20"/>
<path d="M153.271 117.705H167.184V108.549H153.271V117.705Z" fill="#D1D3D4"/>
<path d="M142.316 112.028C142.284 112.035 142.25 112.035 142.218 112.028C142.179 112.016 142.144 111.996 142.113 111.969C142.083 111.943 142.058 111.911 142.04 111.874C142.022 111.838 142.012 111.799 142.009 111.758C142.007 111.718 142.013 111.678 142.026 111.64C142.162 111.239 145.429 101.861 150.838 98.6836C156.247 95.5062 165.102 96.5304 165.497 96.5304C165.578 96.5397 165.652 96.5806 165.703 96.6441C165.754 96.7077 165.778 96.7888 165.769 96.8697C165.765 96.9104 165.752 96.9497 165.732 96.9854C165.712 97.0211 165.685 97.0525 165.653 97.0777C165.621 97.103 165.584 97.1216 165.545 97.1325C165.505 97.1434 165.464 97.1464 165.423 97.1412C165.337 97.1412 156.371 96.0924 151.153 99.1648C145.935 102.237 142.638 111.708 142.607 111.8C142.59 111.865 142.553 111.922 142.5 111.964C142.448 112.005 142.383 112.028 142.316 112.028Z" fill="#231F20"/>
<path d="M136.185 92.791H66.7471V124.379H136.185V92.791Z" fill="#68E1FD"/>
<path d="M136.179 124.694H66.7472C66.6653 124.694 66.5868 124.661 66.5289 124.604C66.471 124.546 66.4385 124.467 66.4385 124.385V92.7909C66.4385 92.7091 66.471 92.6306 66.5289 92.5728C66.5868 92.5149 66.6653 92.4824 66.7472 92.4824H136.179C136.261 92.4824 136.339 92.5149 136.397 92.5728C136.455 92.6306 136.488 92.7091 136.488 92.7909V124.385C136.488 124.467 136.455 124.546 136.397 124.604C136.339 124.661 136.261 124.694 136.179 124.694ZM67.056 124.077H135.87V93.0994H67.056V124.077Z" fill="#231F20"/>
<path d="M76.8742 124.694C76.7923 124.694 76.7138 124.661 76.6559 124.604C76.598 124.546 76.5654 124.467 76.5654 124.385V92.7909C76.5654 92.7091 76.598 92.6306 76.6559 92.5728C76.7138 92.5149 76.7923 92.4824 76.8742 92.4824C76.9556 92.484 77.0332 92.517 77.0908 92.5745C77.1483 92.632 77.1813 92.7096 77.1829 92.7909V124.385C77.1813 124.467 77.1483 124.544 77.0908 124.602C77.0332 124.659 76.9556 124.692 76.8742 124.694Z" fill="#231F20"/>
<path d="M89.1496 124.694C89.0677 124.694 88.9892 124.661 88.9313 124.604C88.8734 124.546 88.8408 124.467 88.8408 124.385V92.7909C88.8408 92.7091 88.8734 92.6306 88.9313 92.5728C88.9892 92.5149 89.0677 92.4824 89.1496 92.4824C89.231 92.484 89.3086 92.517 89.3661 92.5745C89.4237 92.632 89.4567 92.7096 89.4583 92.7909V124.385C89.4567 124.467 89.4237 124.544 89.3661 124.602C89.3086 124.659 89.231 124.692 89.1496 124.694Z" fill="#231F20"/>
<path d="M101.463 124.694C101.381 124.694 101.303 124.661 101.245 124.604C101.187 124.546 101.154 124.467 101.154 124.385V92.7909C101.154 92.7091 101.187 92.6306 101.245 92.5728C101.303 92.5149 101.381 92.4824 101.463 92.4824C101.545 92.4824 101.623 92.5149 101.681 92.5728C101.739 92.6306 101.772 92.7091 101.772 92.7909V124.385C101.772 124.467 101.739 124.546 101.681 124.604C101.623 124.661 101.545 124.694 101.463 124.694Z" fill="#231F20"/>
<path d="M113.757 124.694C113.676 124.692 113.598 124.659 113.54 124.602C113.483 124.544 113.45 124.467 113.448 124.385V92.7909C113.45 92.7096 113.483 92.632 113.54 92.5745C113.598 92.517 113.676 92.484 113.757 92.4824C113.839 92.4824 113.917 92.5149 113.975 92.5728C114.033 92.6306 114.066 92.7091 114.066 92.7909V124.385C114.066 124.467 114.033 124.546 113.975 124.604C113.917 124.661 113.839 124.694 113.757 124.694Z" fill="#231F20"/>
<path d="M126.058 124.694C125.976 124.694 125.897 124.661 125.839 124.604C125.782 124.546 125.749 124.467 125.749 124.385V92.7909C125.749 92.7091 125.782 92.6306 125.839 92.5728C125.897 92.5149 125.976 92.4824 126.058 92.4824C126.139 92.484 126.217 92.517 126.274 92.5745C126.332 92.632 126.365 92.7096 126.367 92.7909V124.385C126.365 124.467 126.332 124.544 126.274 124.602C126.217 124.659 126.139 124.692 126.058 124.694Z" fill="#231F20"/>
<path d="M136.179 98.9978H66.7472C66.6653 98.9978 66.5868 98.9653 66.5289 98.9075C66.471 98.8496 66.4385 98.7712 66.4385 98.6893C66.4385 98.6075 66.471 98.5291 66.5289 98.4712C66.5868 98.4134 66.6653 98.3809 66.7472 98.3809H136.179C136.261 98.3809 136.339 98.4134 136.397 98.4712C136.455 98.5291 136.488 98.6075 136.488 98.6893C136.488 98.7712 136.455 98.8496 136.397 98.9075C136.339 98.9653 136.261 98.9978 136.179 98.9978Z" fill="#231F20"/>
<path d="M136.179 102.287H66.7472C66.6653 102.287 66.5868 102.254 66.5289 102.197C66.471 102.139 66.4385 102.06 66.4385 101.978C66.4385 101.897 66.471 101.818 66.5289 101.76C66.5868 101.702 66.6653 101.67 66.7472 101.67H136.179C136.261 101.67 136.339 101.702 136.397 101.76C136.455 101.818 136.488 101.897 136.488 101.978C136.488 102.06 136.455 102.139 136.397 102.197C136.339 102.254 136.261 102.287 136.179 102.287Z" fill="#231F20"/>
<path d="M136.179 105.594H66.7472C66.6653 105.594 66.5868 105.561 66.5289 105.503C66.471 105.445 66.4385 105.367 66.4385 105.285C66.4385 105.203 66.471 105.125 66.5289 105.067C66.5868 105.009 66.6653 104.977 66.7472 104.977H136.179C136.261 104.977 136.339 105.009 136.397 105.067C136.455 105.125 136.488 105.203 136.488 105.285C136.488 105.367 136.455 105.445 136.397 105.503C136.339 105.561 136.261 105.594 136.179 105.594Z" fill="#231F20"/>
<path d="M136.179 108.869H66.7472C66.6653 108.869 66.5868 108.836 66.5289 108.779C66.471 108.721 66.4385 108.642 66.4385 108.56C66.4385 108.479 66.471 108.4 66.5289 108.342C66.5868 108.284 66.6653 108.252 66.7472 108.252H136.179C136.261 108.252 136.339 108.284 136.397 108.342C136.455 108.4 136.488 108.479 136.488 108.56C136.488 108.642 136.455 108.721 136.397 108.779C136.339 108.836 136.261 108.869 136.179 108.869Z" fill="#231F20"/>
<path d="M136.179 112.201H66.7472C66.6653 112.201 66.5868 112.168 66.5289 112.111C66.471 112.053 66.4385 111.974 66.4385 111.892C66.4385 111.811 66.471 111.732 66.5289 111.674C66.5868 111.616 66.6653 111.584 66.7472 111.584H136.179C136.261 111.584 136.339 111.616 136.397 111.674C136.455 111.732 136.488 111.811 136.488 111.892C136.488 111.974 136.455 112.053 136.397 112.111C136.339 112.168 136.261 112.201 136.179 112.201Z" fill="#231F20"/>
<path d="M136.179 115.502H66.7472C66.6653 115.502 66.5868 115.469 66.5289 115.411C66.471 115.354 66.4385 115.275 66.4385 115.193C66.4385 115.111 66.471 115.033 66.5289 114.975C66.5868 114.917 66.6653 114.885 66.7472 114.885H136.179C136.261 114.885 136.339 114.917 136.397 114.975C136.455 115.033 136.488 115.111 136.488 115.193C136.488 115.275 136.455 115.354 136.397 115.411C136.339 115.469 136.261 115.502 136.179 115.502Z" fill="#231F20"/>
<path d="M136.179 118.808H66.7472C66.6653 118.808 66.5868 118.776 66.5289 118.718C66.471 118.66 66.4385 118.582 66.4385 118.5C66.4385 118.418 66.471 118.34 66.5289 118.282C66.5868 118.224 66.6653 118.191 66.7472 118.191H136.179C136.261 118.191 136.339 118.224 136.397 118.282C136.455 118.34 136.488 118.418 136.488 118.5C136.488 118.582 136.455 118.66 136.397 118.718C136.339 118.776 136.261 118.808 136.179 118.808Z" fill="#231F20"/>
<path d="M136.185 120.875H66.7471V124.385H136.185V120.875Z" fill="#231F20"/>
<path d="M136.185 92.791H66.7471V96.3015H136.185V92.791Z" fill="#231F20"/>
<path d="M158.267 73.123H45.3077C44.7288 73.1242 44.1561 73.004 43.6266 72.7701C43.0972 72.5363 42.6227 72.194 42.2339 71.7654C41.8451 71.3369 41.5507 70.8316 41.3696 70.2822C41.1886 69.7328 41.125 69.1515 41.1828 68.576L44.0048 39.7701C44.1145 38.7535 44.5963 37.8132 45.3577 37.1299C46.1191 36.4466 47.1063 36.0686 48.1297 36.0684H155.414C156.439 36.067 157.427 36.4444 158.19 37.1278C158.953 37.8113 159.435 38.7524 159.545 39.7701L162.398 68.5575C162.458 69.1348 162.395 69.7182 162.215 70.2698C162.034 70.8214 161.74 71.329 161.35 71.7595C160.961 72.19 160.485 72.5339 159.954 72.7688C159.423 73.0037 158.848 73.1244 158.267 73.123Z" fill="white"/>
<path d="M122.822 49.8887H142.761C144.417 49.8828 146.018 50.4815 147.263 51.5722C148.508 52.6629 149.312 54.1705 149.523 55.8115L151.739 73.179H113.85L116.06 55.8115C116.271 54.1705 117.075 52.6629 118.32 51.5722C119.565 50.4815 121.166 49.8828 122.822 49.8887Z" fill="#D1D3D4"/>
<path d="M60.3063 49.8887H80.2515C81.9064 49.8843 83.506 50.4836 84.7499 51.5742C85.9937 52.6648 86.7963 54.1715 87.007 55.8115L89.2238 73.179H51.334L53.5446 55.8115C53.7554 54.1705 54.5589 52.6629 55.8041 51.5722C57.0492 50.4815 58.6503 49.8828 60.3063 49.8887Z" fill="#D1D3D4"/>
<path d="M94.3683 69.15C94.3035 69.15 94.2404 69.1296 94.1878 69.0917C94.1352 69.0539 94.0959 69.0005 94.0754 68.939C94.0549 68.8776 94.0543 68.8113 94.0736 68.7495C94.0929 68.6877 94.1312 68.6335 94.1831 68.5947L130.301 41.362C130.367 41.3145 130.449 41.2944 130.529 41.3059C130.61 41.3174 130.683 41.3596 130.733 41.4237C130.758 41.4554 130.777 41.492 130.788 41.5311C130.799 41.5702 130.802 41.6112 130.797 41.6515C130.792 41.6918 130.779 41.7307 130.758 41.7657C130.737 41.8008 130.71 41.8314 130.677 41.8556L94.5536 69.0883C94.4994 69.1268 94.4348 69.1483 94.3683 69.15Z" fill="#D1D3D4"/>
<path d="M101.636 73.7398C101.472 73.7398 101.315 73.6748 101.199 73.5591C101.084 73.4434 101.019 73.2864 101.019 73.1228V36.0681C101.019 35.9045 101.084 35.7476 101.199 35.6319C101.315 35.5162 101.472 35.4512 101.636 35.4512C101.8 35.4512 101.957 35.5162 102.073 35.6319C102.188 35.7476 102.254 35.9045 102.254 36.0681V73.1351C102.25 73.2966 102.184 73.4504 102.068 73.5634C101.953 73.6765 101.798 73.7398 101.636 73.7398Z" fill="#231F20"/>
<path d="M165.386 32.865H37.8107C37.7288 32.865 37.6503 32.8325 37.5924 32.7747C37.5345 32.7168 37.502 32.6383 37.502 32.5565C37.5035 32.4752 37.5366 32.3977 37.5941 32.3401C37.6517 32.2826 37.7293 32.2496 37.8107 32.248H165.386C165.468 32.248 165.547 32.2805 165.605 32.3384C165.662 32.3962 165.695 32.4747 165.695 32.5565C165.695 32.6383 165.662 32.7168 165.605 32.7747C165.547 32.8325 165.468 32.865 165.386 32.865Z" fill="#231F20"/>
<path d="M30.24 42.7129H27.0846C25.6216 42.7129 24.4355 43.8979 24.4355 45.3597V63.1898C24.4355 64.6516 25.6216 65.8366 27.0846 65.8366H30.24C31.7031 65.8366 32.8891 64.6516 32.8891 63.1898V45.3597C32.8891 43.8979 31.7031 42.7129 30.24 42.7129Z" fill="#231F20"/>
<path d="M30.2402 66.1449H27.091C26.3102 66.145 25.5609 65.8372 25.0059 65.2885C24.451 64.7398 24.1351 63.9944 24.127 63.2144V45.3595C24.1286 44.5752 24.4416 43.8235 24.9973 43.2695C25.553 42.7155 26.3059 42.4043 27.091 42.4043H30.2402C31.0242 42.4059 31.7756 42.7178 32.3299 43.2717C32.8842 43.8255 33.1964 44.5763 33.198 45.3595V63.2144C33.1899 63.9934 32.8749 64.7378 32.3213 65.2863C31.7676 65.8349 31.0199 66.1434 30.2402 66.1449ZM27.091 43.0213C26.4697 43.0213 25.8738 43.2674 25.4339 43.7058C24.994 44.1441 24.7461 44.7388 24.7445 45.3595V63.2144C24.7461 63.8351 24.994 64.4298 25.4339 64.8682C25.8738 65.3065 26.4697 65.5527 27.091 65.5527H30.2402C30.5475 65.5527 30.8519 65.4922 31.1358 65.3747C31.4197 65.2572 31.6777 65.0849 31.8951 64.8678C32.1124 64.6507 32.2848 64.3929 32.4024 64.1092C32.52 63.8255 32.5805 63.5215 32.5805 63.2144V45.3595C32.5805 44.7394 32.334 44.1446 31.8951 43.7061C31.4562 43.2676 30.8609 43.0213 30.2402 43.0213H27.091Z" fill="#231F20"/>
<path d="M37.8107 35H36.2979V43.9459H37.8107V35Z" fill="#231F20"/>
<path d="M37.8109 44.2622H36.298C36.2161 44.2622 36.1376 44.2297 36.0797 44.1718C36.0218 44.114 35.9893 44.0355 35.9893 43.9537V35.0016C35.9892 34.9614 35.9973 34.9215 36.0129 34.8845C36.0285 34.8474 36.0513 34.8138 36.0801 34.7856C36.1088 34.7575 36.1429 34.7353 36.1803 34.7205C36.2177 34.7057 36.2578 34.6985 36.298 34.6993H37.8109C37.8511 34.6985 37.8911 34.7057 37.9286 34.7205C37.966 34.7353 38.0001 34.7575 38.0288 34.7856C38.0576 34.8138 38.0804 34.8474 38.096 34.8845C38.1116 34.9215 38.1196 34.9614 38.1196 35.0016V43.9537C38.1196 44.0355 38.0871 44.114 38.0292 44.1718C37.9713 44.2297 37.8928 44.2622 37.8109 44.2622ZM36.5759 43.6452H37.4774V35.3101H36.6068L36.5759 43.6452Z" fill="#231F20"/>
<path d="M28.6658 44.6431C28.5454 44.6464 28.4255 44.6255 28.3132 44.5817C28.201 44.5379 28.0986 44.4721 28.0123 44.3881C27.9259 44.3042 27.8573 44.2037 27.8105 44.0928C27.7636 43.9819 27.7395 43.8627 27.7396 43.7423C27.7322 43.0627 27.8596 42.3883 28.1142 41.7581C28.3689 41.1279 28.7459 40.5542 29.2234 40.0702C29.701 39.5861 30.2697 39.2013 30.8968 38.9379C31.5238 38.6744 32.1969 38.5376 32.8772 38.5352H36.2981C36.5438 38.5352 36.7794 38.6327 36.9531 38.8062C37.1268 38.9798 37.2244 39.2152 37.2244 39.4606C37.2244 39.706 37.1268 39.9414 36.9531 40.115C36.7794 40.2885 36.5438 40.386 36.2981 40.386H32.8772C32.0059 40.386 31.1703 40.7318 30.5542 41.3474C29.9382 41.9629 29.5921 42.7978 29.5921 43.6683C29.5971 43.9198 29.5026 44.1632 29.3293 44.3457C29.1559 44.5282 28.9175 44.635 28.6658 44.6431Z" fill="#231F20"/>
<path d="M173.037 65.8359H176.193C177.656 65.8359 178.842 64.6509 178.842 63.1892V45.359C178.842 43.8972 177.656 42.7122 176.193 42.7122H173.037C171.574 42.7122 170.388 43.8972 170.388 45.359V63.1892C170.388 64.6509 171.574 65.8359 173.037 65.8359Z" fill="#231F20"/>
<path d="M176.218 66.1449H173.068C172.284 66.1433 171.532 65.8316 170.977 65.278C170.421 64.7243 170.108 63.9736 170.104 63.1897V45.3595C170.108 44.5757 170.421 43.825 170.977 43.2713C171.532 42.7176 172.284 42.4059 173.068 42.4043H176.218C177.002 42.4059 177.753 42.7178 178.307 43.2717C178.862 43.8255 179.174 44.5763 179.176 45.3595V63.2144C179.167 63.9934 178.852 64.7378 178.299 65.2863C177.745 65.8349 176.997 66.1434 176.218 66.1449ZM173.068 43.0213C172.447 43.0213 171.851 43.2674 171.411 43.7058C170.972 44.1441 170.724 44.7388 170.722 45.3595V63.2144C170.724 63.8351 170.972 64.4298 171.411 64.8682C171.851 65.3065 172.447 65.5527 173.068 65.5527H176.218C176.839 65.5527 177.435 65.3065 177.875 64.8682C178.315 64.4298 178.563 63.8351 178.564 63.2144V45.3595C178.563 44.7388 178.315 44.1441 177.875 43.7058C177.435 43.2674 176.839 43.0213 176.218 43.0213H173.068Z" fill="#231F20"/>
<path d="M165.467 43.9531H166.979V35.0072H165.467V43.9531Z" fill="#231F20"/>
<path d="M166.955 44.2621H165.436C165.354 44.2605 165.277 44.2275 165.219 44.17C165.162 44.1125 165.129 44.035 165.127 43.9536V35.0015C165.129 34.9208 165.162 34.8439 165.22 34.7874C165.277 34.7309 165.355 34.6992 165.436 34.6992H166.955C167.035 34.6992 167.112 34.7311 167.169 34.7878C167.225 34.8445 167.257 34.9214 167.257 35.0015V43.9536C167.257 44.0344 167.226 44.1119 167.169 44.1696C167.113 44.2273 167.036 44.2605 166.955 44.2621ZM165.72 43.6452H166.621V35.31H165.72V43.6452Z" fill="#231F20"/>
<path d="M174.612 44.6431C174.491 44.6464 174.371 44.6255 174.259 44.5817C174.147 44.5379 174.044 44.4721 173.958 44.3881C173.872 44.3042 173.803 44.2037 173.756 44.0928C173.709 43.9819 173.685 43.8627 173.685 43.7423C173.693 43.3052 173.613 42.8711 173.451 42.465C173.289 42.0589 173.048 41.689 172.742 41.3767C172.436 41.0645 172.071 40.8161 171.667 40.6461C171.264 40.476 170.832 40.3876 170.394 40.386H166.955C166.709 40.386 166.473 40.2885 166.3 40.115C166.126 39.9414 166.028 39.706 166.028 39.4606C166.028 39.2152 166.126 38.9798 166.3 38.8062C166.473 38.6327 166.709 38.5352 166.955 38.5352H170.369C171.732 38.5352 173.04 39.0758 174.004 40.0382C174.969 41.0007 175.511 42.3063 175.513 43.6683C175.52 43.9162 175.429 44.1569 175.261 44.339C175.093 44.5212 174.859 44.6303 174.612 44.6431Z" fill="#231F20"/>
<path d="M139.347 89.9535C139.284 89.9517 139.224 89.931 139.174 89.8943C139.123 89.8576 139.085 89.8064 139.064 89.7477C139.044 89.6889 139.041 89.6253 139.057 89.5651C139.074 89.5049 139.108 89.4511 139.155 89.4106L160.885 71.7779C160.95 71.7278 161.031 71.7045 161.113 71.7125C161.194 71.7205 161.27 71.7593 161.323 71.821C161.374 71.886 161.398 71.9682 161.388 72.0502C161.379 72.1321 161.338 72.2071 161.274 72.2591L139.544 89.8857C139.489 89.9325 139.419 89.9568 139.347 89.9535Z" fill="#231F20"/>
<path d="M64.1284 89.9533C64.0567 89.9543 63.9868 89.9303 63.9309 89.8855L42.2195 72.2589C42.1557 72.2074 42.1149 72.1326 42.1062 72.051C42.0975 71.9694 42.1216 71.8878 42.1732 71.8239C42.2248 71.7601 42.2997 71.7194 42.3813 71.7107C42.463 71.702 42.5447 71.7261 42.6086 71.7777L64.3384 89.4104C64.3706 89.4351 64.3975 89.466 64.4175 89.5013C64.4375 89.5366 64.4502 89.5756 64.4548 89.6159C64.4594 89.6562 64.4558 89.697 64.4443 89.7359C64.4328 89.7748 64.4136 89.811 64.3878 89.8423C64.3562 89.8797 64.3163 89.9092 64.2713 89.9284C64.2262 89.9477 64.1773 89.9562 64.1284 89.9533Z" fill="#231F20"/>
<path d="M127.503 64.1033C127.455 64.1028 127.408 64.0914 127.365 64.07C127.323 64.0487 127.285 64.0178 127.256 63.9799C127.232 63.9475 127.214 63.9106 127.204 63.8713C127.194 63.8321 127.192 63.7912 127.197 63.7511C127.203 63.711 127.217 63.6725 127.237 63.6376C127.258 63.6027 127.285 63.5723 127.318 63.548L155.562 42.4664C155.594 42.4371 155.632 42.4147 155.673 42.4009C155.714 42.3871 155.758 42.382 155.801 42.3862C155.844 42.3903 155.886 42.4035 155.924 42.4248C155.961 42.4462 155.994 42.4753 156.02 42.5102C156.046 42.545 156.064 42.585 156.073 42.6273C156.082 42.6697 156.083 42.7135 156.074 42.7559C156.065 42.7984 156.047 42.8385 156.022 42.8736C155.997 42.9088 155.964 42.9382 155.927 42.96L127.688 64.0416C127.635 64.082 127.57 64.1037 127.503 64.1033Z" fill="#D1D3D4"/>
<path d="M65.7403 43.1146C65.7403 43.1146 64.7894 45.9402 65.2278 47.2544L66.5493 47.3963L67.2347 42.9727L65.7403 43.1146Z" fill="white"/>
<path d="M66.5496 47.7047H66.5126L65.1973 47.569C65.1374 47.5637 65.0804 47.541 65.0332 47.5037C64.986 47.4664 64.9508 47.4162 64.9318 47.3592C64.4687 45.9649 65.4073 43.1454 65.4505 43.0405C65.4697 42.9848 65.5042 42.9356 65.5501 42.8985C65.5959 42.8614 65.6513 42.8379 65.7098 42.8307L67.2042 42.6888C67.2512 42.6844 67.2985 42.691 67.3425 42.7082C67.3864 42.7253 67.4258 42.7525 67.4574 42.7875C67.4913 42.8206 67.5165 42.8616 67.5305 42.9069C67.5445 42.9522 67.547 43.0002 67.5376 43.0467L66.8522 47.4641C66.8367 47.5326 66.7983 47.5938 66.7433 47.6376C66.6883 47.6814 66.6199 47.705 66.5496 47.7047ZM65.469 46.9705L66.2841 47.0569L66.8707 43.3181L65.9754 43.4045C65.716 44.2312 65.2714 45.9896 65.469 46.9705Z" fill="#231F20"/>
<path d="M75.966 43.1146C75.966 43.1146 76.917 45.9402 76.4786 47.2544L75.1571 47.3963L74.4717 42.9727L75.966 43.1146Z" fill="white"/>
<path d="M75.1576 47.7043C75.0838 47.7035 75.0126 47.6764 74.9571 47.6277C74.9016 47.579 74.8654 47.5121 74.855 47.439L74.1696 43.0215C74.1603 42.9751 74.1627 42.927 74.1768 42.8818C74.1908 42.8365 74.2159 42.7955 74.2499 42.7624C74.2811 42.727 74.3204 42.6995 74.3645 42.6824C74.4085 42.6652 74.456 42.6588 74.5031 42.6637L75.9912 42.8056C76.0509 42.8117 76.1076 42.8347 76.1546 42.8718C76.2016 42.909 76.2371 42.9588 76.2568 43.0154C76.3 43.1388 77.2386 45.9583 76.7755 47.3341C76.7565 47.3911 76.7212 47.4413 76.674 47.4786C76.6269 47.5159 76.5698 47.5385 76.5099 47.5439L75.1947 47.6796L75.1576 47.7043ZM74.8365 43.3177L75.454 47.0565L76.2691 46.9701C76.4667 45.9891 76.0221 44.2308 75.7628 43.4041L74.8365 43.3177Z" fill="#231F20"/>
<path d="M81.4493 72.6962L83.1536 59.993C83.1536 59.993 76.7316 56.4331 74.4036 55.9827C73.4465 55.7915 66.0859 56.1432 66.0859 56.1432C66.0859 56.1432 56.527 59.5488 56.2059 59.993C56.0392 60.2274 57.4409 66.6623 58.8612 72.6962H81.4493Z" fill="#68E1FD"/>
<path d="M74.8977 56.1439C74.1478 58.4166 73.2229 60.6278 72.1313 62.7577L72.0325 62.9305C71.1309 64.405 70.5319 65.497 70.5319 65.497C69.9105 64.5828 69.3395 63.6354 68.8215 62.659C67.7252 60.5693 66.81 58.3896 66.0859 56.1439C67.6023 55.6124 69.2035 55.3635 70.8098 55.4097C73.6441 55.3851 74.8977 56.1439 74.8977 56.1439Z" fill="#231F20"/>
<path d="M70.5326 65.805C70.4823 65.8048 70.4327 65.7929 70.3878 65.7705C70.3428 65.748 70.3036 65.7155 70.2732 65.6754C69.6485 64.7482 69.0734 63.7885 68.5504 62.8004C67.4442 60.6951 66.5207 58.4989 65.7902 56.2359C65.7656 56.163 65.7699 56.0835 65.802 56.0135C65.8341 55.9436 65.8917 55.8886 65.9631 55.8596C67.5168 55.313 69.1577 55.0558 70.8043 55.1007C73.7189 55.1007 75.0094 55.8473 75.0588 55.8781C75.1182 55.9156 75.1636 55.9715 75.1882 56.0372C75.2127 56.103 75.215 56.1749 75.1947 56.2421C74.4372 58.5345 73.502 60.7644 72.3974 62.9115L72.2986 63.0842C71.4156 64.5402 70.8043 65.6384 70.7981 65.6508C70.7737 65.6968 70.7373 65.7355 70.6927 65.7626C70.6482 65.7898 70.5971 65.8044 70.5449 65.805H70.5326ZM66.4694 56.3285C67.1776 58.4528 68.0573 60.5161 69.1 62.4981C69.5507 63.3495 70.0262 64.1577 70.5079 64.8919C70.7672 64.4353 71.2118 63.658 71.7429 62.751L71.8602 62.5968C72.9044 60.5676 73.792 58.4618 74.5154 56.2976C73.3367 55.8372 72.0749 55.6271 70.8104 55.6807C69.3391 55.6774 67.8756 55.8958 66.4694 56.3285Z" fill="#231F20"/>
<path d="M66.9755 54.2012L74.0582 54.2259L73.9347 56.9281H68.9329L66.5 55.7621L66.9755 54.2012Z" fill="#231F20"/>
<path d="M73.935 57.235H68.9332C68.8884 57.2443 68.8422 57.2443 68.7974 57.235L66.3706 56.069C66.3043 56.038 66.2515 55.984 66.222 55.9171C66.1925 55.8501 66.1882 55.7748 66.2101 55.705L66.6794 54.1441C66.6981 54.08 66.7371 54.0237 66.7905 53.9837C66.844 53.9436 66.909 53.922 66.9758 53.922H74.0585C74.1 53.921 74.1412 53.9287 74.1795 53.9447C74.2178 53.9606 74.2523 53.9844 74.2808 54.0145C74.3109 54.044 74.3343 54.0797 74.3492 54.1191C74.3642 54.1585 74.3703 54.2007 74.3672 54.2428L74.2437 56.9451C74.239 57.0236 74.2044 57.0974 74.147 57.1513C74.0896 57.2052 74.0138 57.2352 73.935 57.235ZM68.995 56.6181H73.6324L73.7312 54.5327H67.1981L66.8708 55.6248L68.995 56.6181Z" fill="#231F20"/>
<path d="M67.4693 47.5689C67.2532 45.8414 64.4127 45.317 64.4868 47.3468C64.4839 48.0497 64.7287 48.7312 65.1784 49.2718C65.4082 49.535 65.711 49.7242 66.0484 49.8153C66.3859 49.9065 66.7429 49.8955 67.0741 49.7838" fill="white"/>
<path d="M66.537 50.1967C66.2374 50.1928 65.9419 50.1272 65.6689 50.0041C65.3958 49.881 65.1511 49.7029 64.95 49.4811C64.4514 48.886 64.1782 48.1347 64.1781 47.3587C64.1504 47.1633 64.1637 46.9642 64.2171 46.7741C64.2705 46.5841 64.3628 46.4072 64.4882 46.2546C64.6136 46.1021 64.7693 45.9772 64.9456 45.8879C65.1218 45.7987 65.3146 45.747 65.5119 45.7361C66.0454 45.6972 66.5741 45.8603 66.9928 46.1929C67.4115 46.5255 67.6897 47.0034 67.772 47.5315C67.7818 47.6133 67.7587 47.6957 67.7077 47.7604C67.6568 47.8252 67.5822 47.8672 67.5003 47.877C67.4184 47.8868 67.336 47.8637 67.2711 47.8128C67.2063 47.7619 67.1643 47.6873 67.1545 47.6055C67.0832 47.2409 66.8817 46.9146 66.5874 46.6876C66.2931 46.4606 65.9262 46.3482 65.5551 46.3716C65.2587 46.3716 64.7586 46.5567 64.7894 47.3587C64.7853 47.9892 65.004 48.601 65.4069 49.0862C65.5941 49.3027 65.8407 49.4596 66.1162 49.5374C66.3917 49.6153 66.684 49.6107 66.9569 49.5243C67.0339 49.4937 67.1199 49.4947 67.1961 49.527C67.2724 49.5593 67.3329 49.6204 67.3644 49.697C67.3795 49.7347 67.3869 49.7749 67.3864 49.8155C67.3858 49.856 67.3773 49.8961 67.3612 49.9333C67.3451 49.9706 67.3219 50.0043 67.2928 50.0326C67.2637 50.0608 67.2293 50.0831 67.1915 50.098C66.981 50.1699 66.7593 50.2034 66.537 50.1967Z" fill="#231F20"/>
<path d="M73.6445 47.5689C73.8607 45.8414 76.695 45.317 76.6271 47.3468C76.63 48.0497 76.3851 48.7312 75.9355 49.2718C75.7047 49.5355 75.4008 49.7249 75.0623 49.8161C74.7237 49.9073 74.3657 49.896 74.0336 49.7838" fill="white"/>
<path d="M74.5769 50.1961C74.3529 50.1964 74.1309 50.1545 73.9224 50.0727C73.8462 50.0424 73.7852 49.9832 73.7528 49.908C73.7204 49.8328 73.7192 49.7478 73.7495 49.6717C73.7798 49.5956 73.8391 49.5347 73.9144 49.5023C73.9896 49.4699 74.0747 49.4687 74.1509 49.4989C74.4247 49.5859 74.718 49.5908 74.9946 49.5129C75.2712 49.4351 75.5188 49.2779 75.707 49.0609C76.1109 48.5762 76.3297 47.9641 76.3245 47.3334C76.3553 46.5314 75.8552 46.3709 75.5588 46.3463C75.1877 46.3229 74.8208 46.4352 74.5265 46.6623C74.2322 46.8893 74.0307 47.2156 73.9594 47.5802C73.9487 47.6611 73.9062 47.7345 73.8414 47.7842C73.7766 47.834 73.6947 47.856 73.6136 47.8455C73.5732 47.841 73.5341 47.8283 73.4986 47.8083C73.4632 47.7884 73.4321 47.7614 73.4073 47.7292C73.3825 47.6969 73.3645 47.66 73.3543 47.6206C73.3442 47.5812 73.342 47.5402 73.3481 47.5C73.4318 46.973 73.7106 46.4967 74.1291 46.1653C74.5477 45.8339 75.0756 45.6717 75.6082 45.7108C75.8048 45.7235 75.9967 45.7764 76.172 45.8662C76.3474 45.956 76.5023 46.0808 76.6274 46.233C76.7525 46.3851 76.8449 46.5613 76.899 46.7506C76.9531 46.9399 76.9677 47.1382 76.942 47.3334C76.9544 48.1169 76.6849 48.8788 76.1824 49.4804C75.9797 49.7052 75.7321 49.8849 75.4556 50.0082C75.179 50.1315 74.8797 50.1955 74.5769 50.1961Z" fill="#231F20"/>
<path d="M67.2471 56.1506C68.372 56.6376 69.5841 56.8916 70.81 56.8971C73.0577 56.9773 73.4344 56.3666 73.4344 56.3666L73.3789 55.1326L73.2553 52.3378L73.138 49.7219L68.0004 49.543L67.7534 51.6715L67.6793 52.3563L67.2471 56.1506Z" fill="white"/>
<path d="M71.1867 57.2119H70.7976C69.5231 57.2022 68.2634 56.9379 67.0926 56.4345C67.0379 56.4048 66.993 56.3598 66.9634 56.3051C66.9338 56.2503 66.9207 56.1881 66.9259 56.1261L67.6793 49.5431C67.6899 49.4662 67.7285 49.396 67.7878 49.3459C67.8471 49.2958 67.9228 49.2694 68.0004 49.2716L73.138 49.4505C73.2156 49.4536 73.2892 49.4858 73.3442 49.5406C73.3991 49.5955 73.4313 49.6691 73.4344 49.7467L73.7308 56.3605C73.7335 56.4219 73.7161 56.4825 73.6814 56.5332C73.6196 56.6505 73.1688 57.2119 71.1867 57.2119ZM67.5805 55.978C68.6149 56.37 69.7099 56.5788 70.8162 56.5949C72.3661 56.6566 72.9465 56.3667 73.1194 56.2433L72.8416 50.0737L68.2721 49.9194L67.5805 55.978Z" fill="#231F20"/>
<path d="M75.0524 42.9098L74.8363 49.1411C74.8298 49.4074 74.7946 49.6721 74.7313 49.9308C74.5183 50.8114 74.0074 51.5915 73.285 52.139C72.5626 52.6865 71.6731 52.9679 70.7669 52.9354H70.3038C69.4486 52.9124 68.6242 52.6115 67.9556 52.0782C67.287 51.5449 66.8107 50.8083 66.5988 49.9802C66.5064 49.6176 66.4669 49.2436 66.4815 48.8697L66.6976 42.6445C66.6976 42.6445 67.6732 43.9216 70.4582 43.8785C72.0424 43.8985 73.6114 43.5677 75.0524 42.9098Z" fill="white"/>
<path d="M70.9033 53.2509H70.7552H70.292C69.3687 53.2214 68.48 52.8923 67.7603 52.3136C67.0407 51.7348 66.5291 50.9377 66.303 50.0427C66.2005 49.6398 66.1569 49.2242 66.1733 48.8088L66.3894 42.5836C66.3907 42.5194 66.412 42.4572 66.4504 42.4057C66.4887 42.3541 66.5422 42.3158 66.6034 42.2961C66.6646 42.2764 66.7304 42.2763 66.7917 42.2958C66.853 42.3152 66.9066 42.3533 66.9452 42.4047C66.9452 42.4047 67.8653 43.5399 70.3785 43.5399H70.4587C71.9842 43.549 73.494 43.2313 74.8862 42.6083C74.9332 42.5812 74.9864 42.567 75.0406 42.567C75.0948 42.567 75.148 42.5812 75.195 42.6083C75.2412 42.6363 75.2788 42.6764 75.3038 42.7243C75.3289 42.7721 75.3403 42.8259 75.337 42.8798L75.1209 49.1111C75.1112 49.3978 75.074 49.6829 75.0097 49.9625C74.7917 50.8903 74.2687 51.7184 73.5244 52.3145C72.78 52.9106 71.8572 53.2403 70.9033 53.2509ZM67.0069 43.287L66.8155 48.8396C66.7984 49.1925 66.8338 49.546 66.9205 49.8885C67.1168 50.6463 67.5529 51.3205 68.1637 51.8108C68.7746 52.301 69.5276 52.5811 70.3106 52.6093H70.7737C71.6091 52.6417 72.4298 52.3832 73.0955 51.8779C73.7612 51.3726 74.2305 50.6519 74.4231 49.8391C74.484 49.6011 74.5172 49.3568 74.5219 49.1111L74.7195 43.3795C73.3673 43.8979 71.9318 44.1655 70.4835 44.1692C69.2614 44.2393 68.0474 43.9312 67.0069 43.287Z" fill="#231F20"/>
<path d="M71.5633 51.4912C70.8036 51.4745 70.0554 51.3023 69.365 50.9853C69.291 50.9527 69.2328 50.8925 69.2027 50.8175C69.1727 50.7425 69.1733 50.6588 69.2044 50.5842C69.2371 50.5088 69.2981 50.4491 69.3742 50.418C69.4504 50.3868 69.5357 50.3867 69.612 50.4177C71.4336 51.2012 72.4031 50.7385 72.4093 50.7323C72.4822 50.6957 72.5666 50.6895 72.6442 50.7149C72.7217 50.7403 72.786 50.7954 72.823 50.868C72.8422 50.9036 72.8541 50.9426 72.8579 50.9828C72.8618 51.023 72.8575 51.0635 72.8455 51.1021C72.8334 51.1406 72.8137 51.1763 72.7875 51.2071C72.7614 51.2379 72.7294 51.2632 72.6933 51.2814C72.3371 51.4349 71.9509 51.5066 71.5633 51.4912Z" fill="#231F20"/>
<path d="M68.7658 47.2587C68.9159 47.2587 69.0375 46.9852 69.0375 46.6479C69.0375 46.3106 68.9159 46.0371 68.7658 46.0371C68.6158 46.0371 68.4941 46.3106 68.4941 46.6479C68.4941 46.9852 68.6158 47.2587 68.7658 47.2587Z" fill="#231F20"/>
<path d="M72.7434 47.2587C72.8934 47.2587 73.0151 46.9852 73.0151 46.6479C73.0151 46.3106 72.8934 46.0371 72.7434 46.0371C72.5933 46.0371 72.4717 46.3106 72.4717 46.6479C72.4717 46.9852 72.5933 47.2587 72.7434 47.2587Z" fill="#231F20"/>
<path d="M74.0582 54.2246C73.9594 54.2246 70.7793 56.8961 70.7793 56.8961L72.7429 59.1911L74.7128 55.6066L74.0582 54.2246Z" fill="white"/>
<path d="M72.7433 59.5132C72.6986 59.5116 72.6548 59.501 72.6144 59.4819C72.5741 59.4628 72.5381 59.4357 72.5086 59.4021L70.545 57.1132C70.518 57.082 70.4975 57.0458 70.4848 57.0066C70.4721 56.9674 70.4673 56.926 70.4709 56.8849C70.4731 56.844 70.4843 56.8041 70.5034 56.7679C70.5226 56.7317 70.5494 56.7 70.582 56.6752C73.8486 53.9297 73.9165 53.9297 74.0585 53.9297C74.1164 53.9296 74.1731 53.9457 74.2223 53.9763C74.2714 54.0068 74.311 54.0505 74.3364 54.1024L74.991 55.4844C75.0137 55.5283 75.0256 55.5769 75.0256 55.6263C75.0256 55.6757 75.0137 55.7244 74.991 55.7682L73.0211 59.3528C72.9978 59.3959 72.9642 59.4325 72.9233 59.4594C72.8823 59.4863 72.8353 59.5027 72.7865 59.507L72.7433 59.5132ZM71.2427 56.9343L72.7124 58.6494L74.392 55.5955L73.9659 54.6886C73.3916 55.1204 72.1381 56.1631 71.2427 56.9343Z" fill="#231F20"/>
<path d="M66.9751 54.2012C67.0801 54.2012 70.8098 56.8973 70.8098 56.8973L68.5312 59.1924L66.2588 55.6078L66.9751 54.2012Z" fill="white"/>
<path d="M68.5313 59.5122H68.5004C68.4538 59.5082 68.4088 59.4933 68.3691 59.4686C68.3294 59.4439 68.2961 59.4102 68.2719 59.3703L65.9995 55.7919C65.9736 55.7446 65.96 55.6916 65.96 55.6376C65.96 55.5837 65.9736 55.5307 65.9995 55.4834L66.7096 54.0767C66.737 54.0268 66.7772 53.9851 66.826 53.9559C66.8748 53.9266 66.9306 53.9108 66.9875 53.9102C67.1172 53.9102 67.1913 53.9102 71.0013 56.668C71.0374 56.6932 71.0673 56.7263 71.0887 56.7648C71.11 56.8033 71.1224 56.8461 71.1248 56.8901C71.1297 56.9341 71.1245 56.9787 71.1095 57.0204C71.0945 57.0621 71.0702 57.0999 71.0383 57.1307L68.7721 59.4073C68.7419 59.4411 68.7047 59.4679 68.6631 59.486C68.6216 59.5041 68.5766 59.513 68.5313 59.5122ZM66.617 55.6006L68.5868 58.6854L70.3344 56.9209C69.2167 56.1189 67.6976 55.033 67.0987 54.6258L66.617 55.6006Z" fill="#231F20"/>
<path d="M65.4561 43.7186C65.4561 43.7186 66.1353 45.5694 70.9456 45.5694C74.2431 45.5694 76.4537 44.3355 76.5957 43.7186C74.7218 43.2461 72.798 42.9996 70.8654 42.9844C69.0501 43.1291 67.2442 43.3742 65.4561 43.7186Z" fill="#231F20"/>
<path d="M70.9399 45.8531C65.9999 45.8531 65.1971 43.9097 65.1724 43.8295C65.1528 43.7891 65.1426 43.7448 65.1426 43.6999C65.1426 43.655 65.1528 43.6107 65.1724 43.5704C65.1937 43.5307 65.2236 43.4962 65.26 43.4695C65.2963 43.4428 65.3381 43.4246 65.3824 43.4161C67.1848 43.069 69.0051 42.8219 70.8349 42.6758C72.7971 42.6869 74.7505 42.9376 76.6518 43.4223C76.6913 43.4309 76.7287 43.4475 76.7616 43.471C76.7945 43.4946 76.8222 43.5247 76.8431 43.5593C76.8639 43.594 76.8774 43.6326 76.8827 43.6727C76.8881 43.7128 76.8851 43.7536 76.8741 43.7925C76.6765 44.613 74.2003 45.8531 70.9276 45.8531H70.9399ZM65.9999 43.9344C66.4692 44.4094 67.7474 45.2362 70.9399 45.2362C73.626 45.2362 75.4168 44.3909 76.0466 43.9097C74.3545 43.4991 72.6194 43.292 70.8782 43.2927C69.2394 43.4167 67.6088 43.6309 65.9937 43.9344H65.9999Z" fill="#231F20"/>
<path d="M65.3143 43.2805C65.3143 43.2805 64.2954 42.2317 64.5115 41.2198C64.7277 40.208 67.3088 38.6533 69.89 38.3818C72.4711 38.1104 75.5957 39.4307 76.5404 40.2759C77.4852 41.1211 77.8866 42.4661 76.5404 43.2805C76.5404 43.2805 70.4704 41.8615 65.3143 43.2805Z" fill="#231F20"/>
<path d="M65.3146 43.588C65.267 43.5897 65.2197 43.5799 65.1767 43.5595C65.1337 43.5391 65.0963 43.5086 65.0676 43.4707C65.0182 43.4214 63.9375 42.2923 64.1907 41.1263C64.4439 39.9602 67.2782 38.3129 69.8347 38.0415C72.2865 37.9 74.7138 38.5939 76.7198 40.0096C77.026 40.255 77.272 40.5672 77.439 40.9222C77.6059 41.2772 77.6894 41.6657 77.6831 42.0579C77.6471 42.3643 77.5366 42.6572 77.3611 42.911C77.1857 43.1649 76.9506 43.3719 76.6766 43.5139C76.6054 43.5541 76.522 43.5672 76.4419 43.5509C76.3863 43.5509 70.3904 42.1628 65.3701 43.5509L65.3146 43.588ZM70.5386 42.354C72.5366 42.3585 74.5289 42.5652 76.4851 42.971C76.6526 42.8764 76.7957 42.744 76.9029 42.5844C77.0101 42.4248 77.0785 42.2424 77.1026 42.0517C77.1022 41.7562 77.0341 41.4646 76.9035 41.1994C76.7729 40.9342 76.5834 40.7024 76.3493 40.5217C74.4719 39.2213 72.2144 38.583 69.9335 38.7078C67.4141 38.9669 64.9935 40.4908 64.8267 41.299C64.8133 41.6019 64.861 41.9044 64.9671 42.1885C65.0732 42.4726 65.2355 42.7324 65.4442 42.9525C67.1093 42.5317 68.8212 42.3244 70.5386 42.3355V42.354Z" fill="#231F20"/>
<path d="M65.3145 43.281L65.4565 43.7191C67.2055 43.3736 68.9791 43.1673 70.7608 43.1021C72.7196 43.1469 74.6714 43.3532 76.5962 43.7191L76.732 43.1515C74.9708 42.5801 73.1244 42.3151 71.2733 42.3679C68.3279 42.4852 66.1851 42.9109 65.3145 43.281Z" fill="white"/>
<path d="M70.8717 42.9839C71.4378 42.9839 71.8968 42.5253 71.8968 41.9597C71.8968 41.3941 71.4378 40.9355 70.8717 40.9355C70.3056 40.9355 69.8467 41.3941 69.8467 41.9597C69.8467 42.5253 70.3056 42.9839 70.8717 42.9839Z" fill="#68E1FD"/>
<path d="M71.0204 46.4141C71.0204 46.4141 72.4406 49.431 71.9034 49.5729C71.4477 49.6505 70.9821 49.6505 70.5264 49.5729" fill="white"/>
<path d="M71.304 49.9438C71.0268 49.9435 70.75 49.9208 70.4765 49.8759C70.3946 49.862 70.3216 49.8162 70.2736 49.7485C70.2255 49.6808 70.2063 49.5968 70.2203 49.515C70.2342 49.4332 70.28 49.3602 70.3478 49.3122C70.4155 49.2642 70.4996 49.245 70.5815 49.2589C70.9584 49.3112 71.3408 49.3112 71.7177 49.2589C71.5149 48.3186 71.1868 47.4098 70.742 46.5567C70.7243 46.5198 70.7141 46.4799 70.712 46.4391C70.7099 46.3983 70.7159 46.3575 70.7297 46.319C70.7435 46.2806 70.7647 46.2452 70.7923 46.2151C70.8199 46.1849 70.8532 46.1605 70.8902 46.1433C70.964 46.1095 71.0481 46.1061 71.1244 46.1338C71.2007 46.1615 71.263 46.2181 71.2978 46.2914C71.7733 47.3032 72.5328 49.08 72.2734 49.6353C72.245 49.6955 72.2038 49.7488 72.1526 49.7915C72.1014 49.8341 72.0415 49.865 71.977 49.8821C71.7562 49.9313 71.53 49.952 71.304 49.9438Z" fill="#231F20"/>
<path d="M67.68 72.3768C67.6188 72.3768 67.56 72.353 67.5162 72.3103C67.4723 72.2677 67.4469 72.2096 67.4453 72.1485V68.564C67.4458 68.5275 67.455 68.4916 67.4722 68.4594C67.4894 68.4272 67.514 68.3996 67.5441 68.3789C70.6316 66.1023 73.0399 61.9687 74.6762 56.0829C74.6843 56.0537 74.6981 56.0264 74.7168 56.0026C74.7354 55.9787 74.7586 55.9588 74.785 55.9439C74.8114 55.929 74.8404 55.9194 74.8705 55.9158C74.9006 55.9121 74.9311 55.9144 74.9603 55.9225C74.9895 55.9306 75.0168 55.9443 75.0406 55.963C75.0645 55.9816 75.0845 56.0048 75.0994 56.0312C75.1143 56.0575 75.1239 56.0865 75.1275 56.1166C75.1312 56.1466 75.1289 56.1771 75.1208 56.2063C73.4783 62.1353 71.0515 66.3306 67.9084 68.6812V72.1485C67.9084 72.2091 67.8844 72.2671 67.8415 72.31C67.7987 72.3528 67.7406 72.3768 67.68 72.3768Z" fill="#231F20"/>
<path d="M68.7722 68.9891C68.7293 68.9895 68.6873 68.9774 68.6511 68.9544C68.615 68.9314 68.5863 68.8985 68.5684 68.8596C68.5547 68.8325 68.5466 68.803 68.5445 68.7727C68.5424 68.7424 68.5463 68.7121 68.5561 68.6833C68.5659 68.6546 68.5813 68.6281 68.6014 68.6054C68.6216 68.5827 68.646 68.5643 68.6734 68.5511C71.7979 67.0457 75.1324 65.2257 75.3115 64.7815C75.3115 64.4545 74.3853 63.6401 73.5269 63.0848C73.4911 63.0621 73.4623 63.0299 73.4437 62.9918C73.4252 62.9536 73.4177 62.9111 73.422 62.8689C73.425 62.8268 73.44 62.7865 73.4651 62.7526C73.4903 62.7188 73.5246 62.6928 73.564 62.6776C74.5705 62.2643 76.2131 61.5548 76.5589 61.3388C76.6083 60.9131 75.9784 58.7168 75.3239 56.7672C75.3143 56.7384 75.3105 56.708 75.3128 56.6778C75.315 56.6476 75.3233 56.6181 75.3371 56.5911C75.3509 56.5641 75.3699 56.5402 75.3931 56.5206C75.4163 56.501 75.4431 56.4863 75.4721 56.4772C75.5294 56.4575 75.5921 56.4615 75.6466 56.4881C75.701 56.5147 75.7426 56.5618 75.7623 56.6191C77.3554 61.3142 76.9973 61.5548 76.8861 61.6782C75.9971 62.1426 75.0817 62.5546 74.1444 62.9121C74.7619 63.3378 75.787 64.146 75.7746 64.763C75.7746 65.4972 71.4521 67.6812 68.8833 68.9213C68.8514 68.9514 68.8136 68.9745 68.7722 68.9891Z" fill="#231F20"/>
<path d="M69.4883 66.1751H69.4142C68.206 65.7594 67.0432 65.2219 65.9439 64.571C65.1226 63.9541 65.6413 61.8255 65.8698 61.0358C65.1411 60.9433 63.5233 60.6965 63.1528 60.2091C62.7082 59.5921 64.3013 57.803 65.2893 56.7788C65.3102 56.7562 65.3355 56.7381 65.3636 56.7258C65.3918 56.7134 65.4222 56.707 65.453 56.707C65.4837 56.707 65.5142 56.7134 65.5423 56.7258C65.5705 56.7381 65.5958 56.7562 65.6166 56.7788C65.6385 56.8001 65.6558 56.8255 65.6677 56.8536C65.6795 56.8817 65.6856 56.9118 65.6856 56.9423C65.6856 56.9728 65.6795 57.0029 65.6677 57.031C65.6558 57.0591 65.6385 57.0845 65.6166 57.1058C64.4248 58.3397 63.4492 59.6723 63.5233 59.9438C63.7456 60.24 65.2152 60.5114 66.1909 60.6101C66.225 60.6132 66.2579 60.6243 66.2869 60.6425C66.3159 60.6607 66.3401 60.6856 66.3576 60.715C66.3778 60.7432 66.3912 60.7758 66.3965 60.8101C66.4019 60.8443 66.3991 60.8794 66.3885 60.9124C66.0427 61.9736 65.6907 63.806 66.2218 64.207C67.2811 64.8294 68.4003 65.344 69.5624 65.7432C69.6191 65.7654 69.6649 65.8086 69.6902 65.8639C69.7156 65.9191 69.7185 65.9821 69.6983 66.0394C69.6817 66.081 69.6526 66.1164 69.615 66.1407C69.5773 66.165 69.5331 66.177 69.4883 66.1751Z" fill="#231F20"/>
<path d="M60.5846 72.6974C61.6837 70.4455 62.4371 68.7612 62.4371 68.7612L56.2065 59.9941C56.2065 59.9941 53.6006 66.7005 51.4023 72.6974H60.5846Z" fill="#68E1FD"/>
<path d="M87.7548 72.6974C85.5565 66.7005 83.1544 59.9941 83.1544 59.9941L76.7324 68.7673C76.7324 68.7673 77.4734 70.4516 78.5849 72.7035L87.7548 72.6974Z" fill="#68E1FD"/>
<path d="M59.2504 65.7312C59.1901 65.73 59.1327 65.7057 59.0899 65.6633C58.6593 65.2816 58.1447 65.0067 57.5878 64.8609C57.031 64.7151 56.4476 64.7026 55.885 64.8242C55.8554 64.8299 55.825 64.8297 55.7955 64.8236C55.766 64.8175 55.7379 64.8057 55.713 64.7888C55.688 64.7719 55.6667 64.7503 55.6501 64.7251C55.6335 64.7 55.6221 64.6718 55.6164 64.6422C55.6107 64.6126 55.6109 64.5822 55.617 64.5528C55.6231 64.5233 55.6349 64.4953 55.6519 64.4703C55.6688 64.4454 55.6904 64.4241 55.7156 64.4075C55.7408 64.391 55.769 64.3795 55.7986 64.3738C56.4348 64.2346 57.0952 64.2493 57.7246 64.4168C58.3541 64.5842 58.9343 64.8994 59.4171 65.3363C59.439 65.3576 59.4563 65.383 59.4682 65.4111C59.48 65.4392 59.4862 65.4693 59.4862 65.4998C59.4862 65.5303 59.48 65.5604 59.4682 65.5885C59.4563 65.6166 59.439 65.642 59.4171 65.6633C59.3956 65.6856 59.3697 65.7032 59.3409 65.7148C59.3122 65.7265 59.2814 65.7321 59.2504 65.7312Z" fill="#231F20"/>
<path d="M80.1905 65.7324C80.1303 65.7312 80.0728 65.7069 80.03 65.6645C80.0081 65.6433 79.9908 65.6179 79.9789 65.5898C79.9671 65.5617 79.9609 65.5315 79.9609 65.501C79.9609 65.4706 79.9671 65.4404 79.9789 65.4123C79.9908 65.3842 80.0081 65.3588 80.03 65.3376C80.5141 64.9029 81.0945 64.589 81.7234 64.4217C82.3524 64.2544 83.0122 64.2384 83.6485 64.3751C83.6781 64.3808 83.7063 64.3922 83.7315 64.4088C83.7567 64.4253 83.7783 64.4467 83.7952 64.4716C83.8121 64.4965 83.824 64.5245 83.8301 64.554C83.8361 64.5835 83.8364 64.6139 83.8307 64.6435C83.825 64.673 83.8136 64.7012 83.797 64.7264C83.7804 64.7515 83.759 64.7732 83.7341 64.7901C83.7092 64.807 83.6811 64.8188 83.6516 64.8249C83.6221 64.8309 83.5917 64.8311 83.5621 64.8255C82.9993 64.7073 82.4168 64.7215 81.8606 64.8672C81.3043 65.0128 80.7896 65.2858 80.3572 65.6645C80.3125 65.7078 80.2528 65.7322 80.1905 65.7324Z" fill="#231F20"/>
<path d="M69.8471 60.3027C66.3162 60.308 62.9129 61.622 60.296 63.9904C57.6791 66.3588 56.0349 69.6131 55.6816 73.1232H58.5654C58.9067 70.374 60.2418 67.8442 62.3195 66.0098C64.3973 64.1755 67.0744 63.163 69.8471 63.163C72.6198 63.163 75.2969 64.1755 77.3746 66.0098C79.4524 67.8442 80.7875 70.374 81.1288 73.1232H84.0125C83.6593 69.6131 82.0151 66.3588 79.3982 63.9904C76.7813 61.622 73.378 60.308 69.8471 60.3027Z" fill="#231F20"/>
<path d="M75.3554 73.1233H64.333C64.645 71.8995 65.3562 70.8144 66.3542 70.0395C67.3522 69.2645 68.5802 68.8438 69.8442 68.8438C71.1082 68.8438 72.3362 69.2645 73.3342 70.0395C74.3322 70.8144 75.0434 71.8995 75.3554 73.1233Z" fill="#231F20"/>
<path d="M56.6077 66.7561C56.6935 66.4467 56.8724 66.171 57.1202 65.9664C57.2647 65.8865 57.4211 65.8303 57.5834 65.7999C58.9649 65.4666 60.388 65.3378 61.807 65.4173C62.0973 65.4173 62.4245 65.5099 62.5295 65.7875C62.5484 65.9062 62.5321 66.0278 62.4828 66.1375C62.4334 66.2471 62.3531 66.3399 62.2516 66.4045C61.6966 66.7479 61.0515 66.9177 60.3991 66.8919C60.6911 66.9105 60.984 66.9105 61.276 66.8919C61.5662 66.8919 61.8935 67.1078 61.8935 67.404C61.8935 67.7001 61.4674 67.9407 61.1216 68.0209L60.0595 68.2739C60.2882 68.2464 60.5201 68.2696 60.7388 68.3417C60.8465 68.3802 60.9401 68.4502 61.0073 68.5427C61.0745 68.6352 61.1122 68.7458 61.1155 68.86C61.0913 68.9777 61.038 69.0874 60.9603 69.179C60.8826 69.2707 60.783 69.3413 60.6709 69.3844C60.331 69.5575 59.953 69.6424 59.5717 69.6312C59.8218 69.6574 60.0683 69.7112 60.3065 69.7916C60.4732 69.8471 60.6523 69.9397 60.6955 70.1062C60.7055 70.1879 60.695 70.2707 60.6648 70.3472C60.6346 70.4237 60.5857 70.4914 60.5226 70.5443C59.6767 71.4636 57.3981 71.9448 56.3607 71.0934C55.3233 70.242 56.2187 67.8173 56.6077 66.7561Z" fill="white"/>
<path d="M57.8741 71.8512C57.2593 71.8806 56.6531 71.6976 56.1574 71.333C54.9224 70.3459 55.7869 68.0754 56.2439 66.86L56.318 66.6503C56.4166 66.2773 56.6332 65.9462 56.9355 65.7063C57.1102 65.6064 57.3 65.5355 57.4974 65.4965C58.9115 65.1565 60.3678 65.0255 61.8199 65.1079C62.5177 65.151 62.7523 65.4534 62.8203 65.7248C62.8554 65.8985 62.8371 66.0787 62.7676 66.2417C62.6982 66.4047 62.5809 66.5429 62.4312 66.6379C62.2895 66.7517 62.1313 66.8432 61.962 66.9094C62.102 67.0413 62.1841 67.2231 62.1904 67.4153C62.1904 67.6744 62.0731 68.1248 61.2086 68.3407C61.3467 68.4969 61.4196 68.7001 61.4124 68.9083C61.385 69.08 61.3137 69.2417 61.2056 69.3779C61.0974 69.514 60.956 69.62 60.7949 69.6857H60.7455C60.8615 69.7701 60.9445 69.8923 60.9801 70.0312C61.0033 70.1626 60.9928 70.2977 60.9496 70.4239C60.9065 70.5501 60.832 70.6634 60.7331 70.7531C59.9558 71.4711 58.9326 71.8641 57.8741 71.8512ZM56.8984 66.8662L56.8182 67.076C56.4477 68.0693 55.682 70.1608 56.5465 70.8579C57.411 71.5551 59.529 71.1664 60.2885 70.3459C60.3335 70.2997 60.3692 70.2452 60.3935 70.1854C60.3366 70.142 60.2715 70.1105 60.2021 70.0929C59.9841 70.0182 59.7583 69.9685 59.529 69.9448C59.4499 69.9341 59.3778 69.8937 59.3274 69.8318C59.2769 69.77 59.2519 69.6913 59.2573 69.6117C59.2635 69.5342 59.2988 69.4619 59.356 69.4093C59.4133 69.3567 59.4883 69.3276 59.566 69.3279H59.6402C59.9468 69.3274 60.2491 69.2555 60.5232 69.1181C60.6899 69.0317 60.7949 68.9268 60.801 68.8466C60.8072 68.7664 60.7208 68.6739 60.6158 68.6307C60.4374 68.5794 60.2505 68.5648 60.0662 68.5875C59.9904 68.5858 59.9175 68.5577 59.8601 68.5082C59.8026 68.4587 59.7642 68.3908 59.7513 68.3161C59.7401 68.2403 59.7582 68.1632 59.8017 68.1002C59.8453 68.0372 59.9111 67.9931 59.986 67.9767L61.0419 67.7299C61.363 67.6559 61.5791 67.5263 61.5791 67.4153C61.5791 67.3042 61.4062 67.224 61.2333 67.2055C61.1244 67.1963 61.0149 67.1963 60.906 67.2055C60.7097 67.2202 60.5123 67.2077 60.3194 67.1685C60.2465 67.1523 60.1819 67.1103 60.1376 67.0502C60.0933 66.99 60.0723 66.9159 60.0786 66.8415C60.0844 66.7671 60.1171 66.6974 60.1704 66.6452C60.2238 66.5931 60.2943 66.562 60.3688 66.5577C60.9627 66.5883 61.5521 66.44 62.0608 66.132C62.1843 66.0333 62.246 65.9222 62.2337 65.8729C62.2213 65.8235 62.0731 65.7433 61.7891 65.7248C60.4013 65.6439 59.0092 65.7687 57.658 66.095C57.5301 66.1207 57.4072 66.1665 57.2937 66.2307C57.0993 66.3889 56.9608 66.6051 56.8984 66.8477V66.8662Z" fill="#231F20"/>
<path d="M83.2776 66.7563C83.1917 66.4468 83.0128 66.1711 82.765 65.9666C82.6206 65.8866 82.4642 65.8304 82.3019 65.8C80.9203 65.4665 79.4973 65.3376 78.0782 65.4175C77.788 65.4175 77.4607 65.51 77.3557 65.7876C77.3375 65.907 77.3547 66.029 77.4051 66.1387C77.4556 66.2483 77.5372 66.3408 77.6398 66.4046C78.1943 66.7491 78.8398 66.9189 79.4923 66.892C79.2003 66.9106 78.9074 66.9106 78.6154 66.892C78.3252 66.892 77.9979 67.1079 77.9979 67.4041C77.9979 67.7002 78.4178 67.9408 78.7698 68.021L79.8257 68.274C79.5971 68.2469 79.3652 68.2701 79.1465 68.3419C79.0388 68.3803 78.9452 68.4504 78.878 68.5428C78.8108 68.6353 78.7731 68.7459 78.7698 68.8601C78.795 68.9773 78.8487 69.0865 78.9263 69.178C79.0038 69.2695 79.1028 69.3405 79.2144 69.3845C79.5542 69.5577 79.9322 69.6425 80.3136 69.6313C80.0634 69.6575 79.817 69.7113 79.5787 69.7917C79.412 69.8472 79.2329 69.9398 79.1897 70.1064C79.1813 70.1879 79.1927 70.2702 79.2228 70.3464C79.2529 70.4226 79.3008 70.4905 79.3626 70.5444C80.2086 71.4637 82.4871 71.9449 83.5307 71.0935C84.5743 70.2421 83.6666 67.8174 83.2776 66.7563Z" fill="white"/>
<path d="M82.0179 71.8525C80.9557 71.8715 79.9272 71.4803 79.1465 70.7605C79.0447 70.673 78.9681 70.56 78.9247 70.4331C78.8813 70.3062 78.8726 70.17 78.8995 70.0386C78.9335 69.9006 79.0142 69.7785 79.128 69.6931H79.0786C78.9165 69.629 78.7741 69.5234 78.6657 69.387C78.5573 69.2506 78.4867 69.088 78.4611 68.9157C78.4548 68.8123 78.4696 68.7086 78.5046 68.611C78.5396 68.5135 78.5942 68.424 78.6648 68.3481C77.7942 68.1322 77.6768 67.6818 77.683 67.4227C77.6902 67.232 77.7697 67.0512 77.9053 66.9168C77.7367 66.8492 77.5786 66.7578 77.436 66.6453C77.287 66.5497 77.1702 66.4114 77.1008 66.2486C77.0314 66.0858 77.0127 65.9058 77.047 65.7322C77.1149 65.4793 77.3496 65.177 78.0473 65.1153C79.4994 65.0338 80.9556 65.1647 82.3698 65.5039C82.5649 65.5443 82.7525 65.6151 82.9256 65.7137C83.2282 65.9533 83.4449 66.2846 83.5431 66.6577L83.6234 66.8674C84.0741 68.1013 84.9139 70.3533 83.7036 71.3404C83.2162 71.6974 82.6217 71.878 82.0179 71.8525ZM79.4923 70.1928C79.5198 70.249 79.5551 70.3009 79.5973 70.3471C80.3568 71.1676 82.4563 71.581 83.3393 70.8592C84.2223 70.1373 83.4381 68.0767 83.0676 67.0772L82.9873 66.8674C82.9228 66.6273 82.7872 66.4123 82.5983 66.2505C82.4825 66.1865 82.3575 66.1407 82.2278 66.1147C80.8761 65.7914 79.4845 65.6667 78.0967 65.7446C77.8127 65.7446 77.6707 65.8309 77.6521 65.8926C77.6336 65.9543 77.7015 66.053 77.8312 66.1518C78.3372 66.4606 78.9249 66.6091 79.517 66.5775C79.5989 66.5701 79.6803 66.5955 79.7434 66.6482C79.8066 66.7008 79.8462 66.7764 79.8535 66.8582C79.8609 66.94 79.8354 67.0214 79.7827 67.0844C79.73 67.1475 79.6545 67.1871 79.5726 67.1944C79.3695 67.2357 79.1616 67.2482 78.9551 67.2314C78.8462 67.2222 78.7367 67.2222 78.6278 67.2314C78.4549 67.2314 78.2882 67.3487 78.2882 67.4412C78.2882 67.5337 78.5043 67.6818 78.8192 67.7559L79.8751 68.0026C79.95 68.019 80.0158 68.0631 80.0594 68.1261C80.1029 68.1891 80.1209 68.2662 80.1098 68.342C80.0993 68.4177 80.0615 68.4871 80.0036 68.537C79.9456 68.587 79.8714 68.6141 79.7949 68.6134C79.6106 68.5907 79.4237 68.6054 79.2453 68.6566C79.1981 68.6731 79.1562 68.7018 79.1236 68.7397C79.0911 68.7776 79.0692 68.8235 79.06 68.8725C79.06 68.9528 79.1712 69.0576 79.3379 69.144C79.633 69.2904 79.9595 69.3624 80.2889 69.3538C80.3283 69.3513 80.3678 69.3567 80.4051 69.3697C80.4425 69.3827 80.4768 69.403 80.5061 69.4294C80.5355 69.4559 80.5592 69.4879 80.576 69.5236C80.5928 69.5594 80.6022 69.5981 80.6038 69.6376C80.6108 69.7175 80.5863 69.797 80.5356 69.8592C80.4848 69.9214 80.4118 69.9614 80.3321 69.9707C80.1029 69.9951 79.8772 70.0448 79.659 70.1188C79.5293 70.1435 79.4985 70.1867 79.4923 70.1928Z" fill="#231F20"/>
<path d="M158.267 73.74H45.3076C44.6424 73.7406 43.9845 73.602 43.3762 73.3331C42.7679 73.0641 42.2228 72.6708 41.776 72.1784C41.3292 71.6861 40.9906 71.1056 40.782 70.4746C40.5735 69.8435 40.4996 69.1757 40.5652 68.5143L43.418 39.7269C43.5231 38.5454 44.068 37.4463 44.9449 36.6466C45.8218 35.847 46.967 35.4051 48.1543 35.4082H155.414C156.602 35.405 157.748 35.8467 158.626 36.6462C159.504 37.4457 160.05 38.5449 160.156 39.7269L163.003 68.5143C163.069 69.1752 162.995 69.8424 162.787 70.4731C162.579 71.1038 162.24 71.6839 161.794 72.1761C161.348 72.6684 160.804 73.0618 160.196 73.3312C159.589 73.6005 158.932 73.7398 158.267 73.74ZM48.1296 36.6853C47.2538 36.6829 46.4086 37.0074 45.7598 37.5952C45.111 38.1829 44.7053 38.9916 44.6222 39.8627L41.7693 68.6501C41.721 69.1398 41.7759 69.6343 41.9306 70.1016C42.0852 70.5689 42.3362 70.9986 42.6672 71.363C42.9982 71.7275 43.402 72.0186 43.8525 72.2176C44.303 72.4166 44.7903 72.5191 45.2829 72.5184H158.285C158.777 72.5182 159.264 72.4151 159.714 72.2157C160.164 72.0163 160.567 71.7251 160.897 71.3607C161.227 70.9964 161.478 70.567 161.632 70.1001C161.786 69.6333 161.841 69.1393 161.793 68.6501L158.928 39.8503C158.84 38.9809 158.432 38.1752 157.782 37.5901C157.133 37.005 156.289 36.6825 155.414 36.6853H48.1296Z" fill="#231F20"/>
<path d="M87.2975 50.6713C87.2516 50.6719 87.2062 50.6622 87.1645 50.643C87.1228 50.6238 87.086 50.5955 87.0566 50.5603C87.0051 50.4961 86.9807 50.4143 86.9888 50.3325C86.9969 50.2506 87.0368 50.1751 87.0999 50.1222L97.8814 41.4848C97.9464 41.434 98.0287 41.4107 98.1107 41.4199C98.1927 41.4292 98.2678 41.4702 98.3198 41.5342C98.3703 41.5981 98.3935 41.6794 98.3842 41.7603C98.375 41.8412 98.3341 41.9151 98.2704 41.966L87.4889 50.6035C87.4359 50.6494 87.3676 50.6737 87.2975 50.6713Z" fill="#D1D3D4"/>
<path d="M48.3947 52.0158C48.3299 52.0158 48.2667 51.9954 48.2142 51.9576C48.1616 51.9197 48.1223 51.8663 48.1018 51.8049C48.0813 51.7434 48.0807 51.6771 48.1 51.6153C48.1193 51.5535 48.1576 51.4994 48.2094 51.4605L60.1148 42.5578C60.1803 42.5087 60.2627 42.4876 60.3438 42.4992C60.4248 42.5108 60.498 42.554 60.5471 42.6195C60.5962 42.6849 60.6173 42.7672 60.6057 42.8482C60.5942 42.9292 60.5508 43.0023 60.4853 43.0514L48.5552 51.9541C48.508 51.9883 48.4527 52.0096 48.3947 52.0158Z" fill="#D1D3D4"/>
</svg>
